<?xml version="1.0" encoding="utf-8"?>
<!-- Generator: Adobe Illustrator 16.0.0, SVG Export Plug-In . SVG Version: 6.00 Build 0)  -->
<!DOCTYPE svg PUBLIC "-//W3C//DTD SVG 1.1//EN" "http://www.w3.org/Graphics/SVG/1.1/DTD/svg11.dtd">
<svg version="1.1" id="Layer_1" xmlns="http://www.w3.org/2000/svg" xmlns:xlink="http://www.w3.org/1999/xlink" x="0px" y="0px"
	 width="360px" height="288px" viewBox="126 252 360 288" enable-background="new 126 252 360 288" xml:space="preserve">
<g>
	<g id="XMLID_1_">
		<g>
			<path fill="none" stroke="#000000" stroke-width="2" stroke-linecap="round" stroke-linejoin="round" stroke-miterlimit="10" d="
				M348.469,388.647c-25.04,6.051-22.91,20-35.188,30.82c-3.03,2.67-5.98,5.51-5.552,10.141"/>
			<path fill="none" stroke="#000000" stroke-width="2" stroke-linecap="round" stroke-linejoin="round" stroke-miterlimit="10" d="
				M275.409,447.147c0.148,2.621-2.48-3.34-5.08-3.659c-5.72-0.69-38.33,13.819-36.94,5.36"/>
			<path fill="none" stroke="#000000" stroke-width="2" stroke-linecap="round" stroke-linejoin="round" stroke-miterlimit="10" d="
				M219.069,455.458c-1.53,0.311-9.82,0.25-11.08,1.971"/>
			<path fill="none" stroke="#000000" stroke-width="2" stroke-linecap="round" stroke-linejoin="round" stroke-miterlimit="10" d="
				M258.779,434.218c7.08,1.23,11.4,3.271,23.89-3.229c1.36-0.7,5.67-6.62,4.74-7.851c0,0-0.932-20.91,11.818-32.319
				c12.75-11.41-2.71-16.62,18.32-16.62"/>
			<path fill="none" stroke="#000000" stroke-width="2" stroke-linecap="round" stroke-linejoin="round" stroke-miterlimit="10" d="
				M257.859,434.218c-4-0.609-8-1.229-12.01-1.84"/>
			<path fill="none" stroke="#000000" stroke-width="2" stroke-linecap="round" stroke-linejoin="round" stroke-miterlimit="10" d="
				M206.149,440.688c-0.93,0.31-1.85,0.609-2.77,0.92"/>
			<path fill="none" stroke="#000000" stroke-width="2" stroke-linecap="round" stroke-linejoin="round" stroke-miterlimit="10" d="
				M203.379,352.958c11.38,6.46,32.93,24.93,44.32,31.4"/>
			<path fill="none" stroke="#000000" stroke-width="2" stroke-linecap="round" stroke-linejoin="round" stroke-miterlimit="10" d="
				M399.148,374.198c-11.698,5.23-32.148,3.439-34.979,15.92c-1.04,4.58-7.07-0.391-9.352-0.189"/>
			<path fill="none" stroke="#000000" stroke-width="2" stroke-linecap="round" stroke-linejoin="round" stroke-miterlimit="10" d="
				M323.429,442.538c-6.64-2.08-13.82-0.609-20.2-2.3c-3.96-1.04-5.83,1.75-6.278,2.479c-1.771,2.9,2.408,2.67,3.42,4.41
				c0.77,1.33,1.818,2.49,2.738,3.721"/>
			<path fill="none" stroke="#000000" stroke-width="2" stroke-linecap="round" stroke-linejoin="round" stroke-miterlimit="10" d="
				M206.839,374.769c10.26,5.51,6.69,22.979,30.77,36.289c1.72,0.951,4.41,3.041,6.91,3.49c1.13,0.2,2.23,0.08,3.18-0.64"/>
			<path fill="none" stroke="#000000" stroke-width="2" stroke-linecap="round" stroke-linejoin="round" stroke-miterlimit="10" d="
				M230.619,361.268c5.73,6.35,1.74,0.97,8.77,5.54"/>
			<path fill="none" stroke="#000000" stroke-width="2" stroke-linecap="round" stroke-linejoin="round" stroke-miterlimit="10" d="
				M239.389,366.778c4.09,2.99,10.44,12.35,8.31,17.58"/>
			<path fill="none" stroke="#000000" stroke-width="2" stroke-linecap="round" stroke-linejoin="round" stroke-miterlimit="10" d="
				M219.069,411.138c3.92-0.74,8.2,0.15,10.88,2.121c2.52,1.859,10.03,1.84,14.57,1.289c1.44-0.18,2.59-0.41,3.18-0.64"/>
			<path fill="none" stroke="#000000" stroke-width="2" stroke-linecap="round" stroke-linejoin="round" stroke-miterlimit="10" d="
				M179.359,404.858c27.55,6.57,4.62-17.73,27.48,1.73"/>
			<path fill="none" stroke="#000000" stroke-width="2" stroke-linecap="round" stroke-linejoin="round" stroke-miterlimit="10" d="
				M416.879,357.938c-5.36,11.64-31.98-1.12-35.16,15.51c-0.49,2.55-3.59,1.76-5.66,0.75"/>
			<path fill="none" stroke="#000000" stroke-width="2" stroke-linecap="round" stroke-linejoin="round" stroke-miterlimit="10" d="
				M231.999,429.608c11.03,11.52-30.25-12.971-19.39-8.311"/>
			<path fill="none" stroke="#000000" stroke-width="2" stroke-linecap="round" stroke-linejoin="round" stroke-miterlimit="10" d="
				M200.139,424.068c-7.38,1.84-4.15,6.92-16.16,3.69"/>
			<path fill="none" stroke="#000000" stroke-width="2" stroke-linecap="round" stroke-linejoin="round" stroke-miterlimit="10" d="
				M313.269,427.759c16.88-11.811,26.33,1.229,31.4,1.399"/>
			<path fill="none" stroke="#000000" stroke-width="2" stroke-linecap="round" stroke-linejoin="round" stroke-miterlimit="10" d="
				M357.589,429.608c6.16-0.08,11.49-7.36,19.8,2.77"/>
			<path fill="none" stroke="#000000" stroke-width="2" stroke-linecap="round" stroke-linejoin="round" stroke-miterlimit="10" d="
				M372.369,407.438c-22.15-8.311-4.42,5.33-12.32,9.24c-2.91,1.439-15.74-5.61-27.75,0.189"/>
			<path fill="none" stroke="#000000" stroke-width="2" stroke-linecap="round" stroke-linejoin="round" stroke-miterlimit="10" d="
				M443.479,318.788c0.61-0.92,1.222-1.85,1.84-2.77c1.54-2.28,3.08-0.04,4.61,0.08c0.05,0,0.16,1.2-0.02,1.76
				c-0.57,1.8-2.13,1.7-3.66,1.89c-3.682,0.46-7.312-2.54-11.25,0.69c-1.892,1.55-2.75,2.63-2.602,4.81"/>
			<path fill="none" stroke="#000000" stroke-width="2" stroke-linecap="round" stroke-linejoin="round" stroke-miterlimit="10" d="
				M187.679,448.078c2.16,10.89,4.61,22,22.16,18.47h5.54c6.7,1.381,12.89,6.98,20.38,1.94c2.69-1.81,6.29-2.229,9.13-3.86
				c8.04-4.6,17.77-5.64,24.97-11.939"/>
			<path fill="none" stroke="#000000" stroke-width="2" stroke-linecap="round" stroke-linejoin="round" stroke-miterlimit="10" d="
				M378.829,361.268c-2.63,2.62-7.98,2.83-7.38,8.31"/>
			<path fill="none" stroke="#000000" stroke-width="2" stroke-linecap="round" stroke-linejoin="round" stroke-miterlimit="10" d="
				M191.369,379.738c2.77,2.04,10.16,8.159,12.93,7.39"/>
			<path fill="none" stroke="#000000" stroke-width="2" stroke-linecap="round" stroke-linejoin="round" stroke-miterlimit="10" d="
				M175.669,438.378c-7.39,2.77-16.12-4.16-13.46-16.619l6.07-12.631c0.26-2.71-6.63-33.08,3.77-34.93"/>
			<path fill="none" stroke="#000000" stroke-width="2" stroke-linecap="round" stroke-linejoin="round" stroke-miterlimit="10" d="
				M417.619,364.958c3.52,0.3,3.898-1.92,3.688-4.61"/>
			<path fill="none" stroke="#000000" stroke-width="2" stroke-linecap="round" stroke-linejoin="round" stroke-miterlimit="10" d="
				M191.369,379.738c-7.58-4.84-9.71-4.021-12.01,4.62"/>
			<path fill="none" stroke="#000000" stroke-width="2" stroke-linecap="round" stroke-linejoin="round" stroke-miterlimit="10" d="
				M268.549,390.818c-5.84-48.94-48.45-37.65-53.42-67.87"/>
			<path fill="none" stroke="#000000" stroke-width="2" stroke-linecap="round" stroke-linejoin="round" stroke-miterlimit="10" d="
				M300.719,424.068c-16.58,5.54-11.07,25.35-12.4,25c-2.97-0.78-4.238,0.6-3.68,3.62"/>
			<path fill="none" stroke="#000000" stroke-width="2" stroke-linecap="round" stroke-linejoin="round" stroke-miterlimit="10" d="
				M198.759,304.018c-2.55,2.06-32.32-33.4-11.08,8.6l12.46,7.51c1.93,1.57,12.94,20.85,13.39,22.67"/>
			<path fill="none" stroke="#000000" stroke-width="2" stroke-linecap="round" stroke-linejoin="round" stroke-miterlimit="10" d="
				M444.398,326.178c-2.368,1.15-5.54,0.53-5,5.58c0.42,3.9-3.068,7.11-7.93,3.65"/>
			<path fill="none" stroke="#000000" stroke-width="2" stroke-linecap="round" stroke-linejoin="round" stroke-miterlimit="10" d="
				M273.559,429.608c-4.91-22.17-19.55-30.631-21.7-31.86"/>
			<path fill="none" stroke="#000000" stroke-width="2" stroke-linecap="round" stroke-linejoin="round" stroke-miterlimit="10" d="
				M357.589,456.388c-7.37-9.24-15.7-6.47-18.47,0"/>
			<path fill="none" stroke="#000000" stroke-width="2" stroke-linecap="round" stroke-linejoin="round" stroke-miterlimit="10" d="
				M276.329,414.828c-0.512,3.78,6.25,4.64,3.688,9.24"/>
			<path fill="none" stroke="#000000" stroke-width="2" stroke-linecap="round" stroke-linejoin="round" stroke-miterlimit="10" d="
				M427.779,347.418c0.6,5.06-3.37,4.79-6.472,5.54"/>
			<path fill="none" stroke="#000000" stroke-width="2" stroke-linecap="round" stroke-linejoin="round" stroke-miterlimit="10" d="
				M385.568,419.478c0.73,4.69-3.59,9.051-8.18,12.9c-5.33,4.48-11.04,8.28-9.64,11.11"/>
			<path fill="none" stroke="#000000" stroke-width="2" stroke-linecap="round" stroke-linejoin="round" stroke-miterlimit="10" d="
				M313.269,427.759c-3.47,3.14-10.04,0.529-12.01,6.459"/>
			<path fill="none" stroke="#000000" stroke-width="2" stroke-linecap="round" stroke-linejoin="round" stroke-miterlimit="10" d="
				M392.688,393.589c8.74,5.26,10.15,8.989,6.42,17.529c-0.608,1.41-1.22,2.721-3.698,2.04c-2.4-0.649-16.58-8.351-12.86-15.41
				c1.04-1.979-20.18-0.05-22.5-3.05"/>
			<path fill="none" stroke="#000000" stroke-width="2" stroke-linecap="round" stroke-linejoin="round" stroke-miterlimit="10" d="
				M191.369,336.798c-0.78,2.42-24.93-11.55,2.19,23.55"/>
			<path fill="none" stroke="#000000" stroke-width="2" stroke-linecap="round" stroke-linejoin="round" stroke-miterlimit="10" d="
				M195.989,330.798c0.92,0.3,15.7,11.69,16.62,12"/>
			<path fill="none" stroke="#000000" stroke-width="2" stroke-linecap="round" stroke-linejoin="round" stroke-miterlimit="10" d="
				M434.239,341.878c-2.771,5.54-10.25,2.37-12,1.94"/>
			<path fill="none" stroke="#000000" stroke-width="2" stroke-linecap="round" stroke-linejoin="round" stroke-miterlimit="10" d="
				M332.279,482.089c-3.74-1.281-22.312-14.08-22.312-5.771"/>
			<path fill="none" stroke="#000000" stroke-width="2" stroke-linecap="round" stroke-linejoin="round" stroke-miterlimit="10" d="
				M339.119,473.009c-30.472-2.461-23.91-23.461-26.92-24.871"/>
			<path fill="none" stroke="#000000" stroke-width="2" stroke-linecap="round" stroke-linejoin="round" stroke-miterlimit="10" d="
				M437.929,328.028c-1.53-0.03-11.81,2.12-13.35,4.41"/>
			<path fill="none" stroke="#000000" stroke-width="2" stroke-linecap="round" stroke-linejoin="round" stroke-miterlimit="10" d="
				M422.239,340.948c-5.36-1.13-10.11,12.85-10.722,14.08"/>
			<path fill="none" stroke="#000000" stroke-width="2" stroke-linecap="round" stroke-linejoin="round" stroke-miterlimit="10" d="
				M354.818,458.228c-3.47,19.041-17.538,24.531-31.39,25.871l-8.78-0.931c-13.71-3.39-19.76-20.22-18.93-32.319"/>
			<path fill="none" stroke="#000000" stroke-width="2" stroke-linecap="round" stroke-linejoin="round" stroke-miterlimit="10" d="
				M440.709,322.478c-0.93,0.31-1.852,0.62-2.78,0.93"/>
		</g>
	</g>
</g>
<path fill="none" stroke="#000000" stroke-width="2" stroke-linecap="round" stroke-linejoin="round" stroke-miterlimit="10" d="
	M240.825,204.936"/>
<path fill="none" stroke="#000000" stroke-width="2" stroke-linecap="round" stroke-linejoin="round" stroke-miterlimit="10" d="
	M350.718,287.125c0,0-5.316,17.758-13.594,24.934"/>
<ellipse stroke="#855914" stroke-width="2" stroke-linecap="round" stroke-linejoin="round" stroke-miterlimit="10" cx="350.487" cy="277.398" rx="1.615" ry="1.448"/>
</svg>
