<?xml version="1.0" encoding="utf-8"?>
<!-- Generator: Adobe Illustrator 16.0.0, SVG Export Plug-In . SVG Version: 6.00 Build 0)  -->
<!DOCTYPE svg PUBLIC "-//W3C//DTD SVG 1.1//EN" "http://www.w3.org/Graphics/SVG/1.1/DTD/svg11.dtd">
<svg version="1.1" id="Layer_1" xmlns="http://www.w3.org/2000/svg" xmlns:xlink="http://www.w3.org/1999/xlink" x="0px" y="0px"
	 width="612px" height="792px" viewBox="0 0 612 792" enable-background="new 0 0 612 792" xml:space="preserve">
<g>
	<g id="XMLID_1_">
		<g>
		</g>
		<g>
			<path fill="none" stroke="#58595B" stroke-width="3" stroke-linecap="round" stroke-linejoin="round" stroke-miterlimit="10" d="
				M385.92,284.03c-25.04,6.05-22.91,20-35.189,30.82c-3.03,2.67-5.98,5.51-5.551,10.14"/>
			<path fill="none" stroke="#27AAE1" stroke-width="3" stroke-linecap="round" stroke-linejoin="round" stroke-miterlimit="10" d="
				M312.86,342.53c0.149,2.62-2.48-3.34-5.08-3.66c-5.72-0.69-38.33,13.82-36.94,5.36"/>
			<path fill="none" stroke="#262262" stroke-width="3" stroke-linecap="round" stroke-linejoin="round" stroke-miterlimit="10" d="
				M256.52,350.84c-1.53,0.31-9.82,0.25-11.08,1.97"/>
			<path fill="none" stroke="#000000" stroke-width="3" stroke-linecap="round" stroke-linejoin="round" stroke-miterlimit="10" d="
				M296.23,329.6c7.08,1.23,11.4,3.27,23.89-3.23c1.36-0.7,5.67-6.62,4.74-7.85c0,0-0.931-20.91,11.819-32.32
				c12.75-11.41-2.71-16.62,18.32-16.62"/>
			<path fill="none" stroke="#000000" stroke-width="3" stroke-linecap="round" stroke-linejoin="round" stroke-miterlimit="10" d="
				M295.31,329.6c-4-0.61-8-1.23-12.01-1.84"/>
			<path fill="none" stroke="#2B3990" stroke-width="3" stroke-linecap="round" stroke-linejoin="round" stroke-miterlimit="10" d="
				M243.6,336.07c-0.93,0.31-1.85,0.61-2.77,0.92"/>
			<path fill="none" stroke="#603913" stroke-width="3" stroke-linecap="round" stroke-linejoin="round" stroke-miterlimit="10" d="
				M240.83,248.34c11.38,6.46,32.93,24.93,44.32,31.4"/>
			<path fill="none" stroke="#58595B" stroke-width="3" stroke-linecap="round" stroke-linejoin="round" stroke-miterlimit="10" d="
				M436.6,269.58c-11.699,5.23-32.149,3.44-34.979,15.92c-1.04,4.58-7.07-0.39-9.351-0.19"/>
			<path fill="none" stroke="#58595B" stroke-width="3" stroke-linecap="round" stroke-linejoin="round" stroke-miterlimit="10" d="
				M360.88,337.92c-6.64-2.08-13.82-0.61-20.2-2.3c-3.96-1.04-5.83,1.75-6.279,2.48c-1.771,2.9,2.409,2.67,3.42,4.41
				c0.77,1.33,1.819,2.49,2.739,3.72"/>
			<path fill="none" stroke="#2B3990" stroke-width="3" stroke-linecap="round" stroke-linejoin="round" stroke-miterlimit="10" d="
				M244.29,270.15c10.26,5.51,6.69,22.98,30.77,36.29c1.72,0.95,4.41,3.04,6.91,3.49c1.13,0.2,2.23,0.08,3.18-0.64"/>
			<path fill="none" stroke="#603913" stroke-width="3" stroke-linecap="round" stroke-linejoin="round" stroke-miterlimit="10" d="
				M268.07,256.65c5.73,6.35,1.74,0.97,8.77,5.54"/>
			<path fill="none" stroke="#603913" stroke-width="3" stroke-linecap="round" stroke-linejoin="round" stroke-miterlimit="10" d="
				M276.84,262.16c4.09,2.99,10.44,12.35,8.31,17.58"/>
			<path fill="none" stroke="#2B3990" stroke-width="3" stroke-linecap="round" stroke-linejoin="round" stroke-miterlimit="10" d="
				M256.52,306.52c3.92-0.74,8.2,0.15,10.88,2.12c2.52,1.86,10.03,1.84,14.57,1.29c1.44-0.18,2.59-0.41,3.18-0.64"/>
			<path fill="none" stroke="#27AAE1" stroke-width="3" stroke-linecap="round" stroke-linejoin="round" stroke-miterlimit="10" d="
				M216.81,300.24c27.55,6.57,4.62-17.73,27.48,1.73"/>
			<path fill="none" stroke="#58595B" stroke-width="3" stroke-linecap="round" stroke-linejoin="round" stroke-miterlimit="10" d="
				M454.33,253.32c-5.36,11.64-31.98-1.12-35.16,15.51c-0.49,2.55-3.59,1.76-5.66,0.75"/>
			<path fill="none" stroke="#262262" stroke-width="3" stroke-linecap="round" stroke-linejoin="round" stroke-miterlimit="10" d="
				M269.45,324.99c11.03,11.52-30.25-12.97-19.39-8.31"/>
			<path fill="none" stroke="#262262" stroke-width="3" stroke-linecap="round" stroke-linejoin="round" stroke-miterlimit="10" d="
				M237.59,319.45c-7.38,1.84-4.15,6.92-16.16,3.69"/>
			<path fill="none" stroke="#58595B" stroke-width="3" stroke-linecap="round" stroke-linejoin="round" stroke-miterlimit="10" d="
				M350.72,323.14c16.88-11.81,26.33,1.23,31.4,1.4"/>
			<path fill="none" stroke="#58595B" stroke-width="3" stroke-linecap="round" stroke-linejoin="round" stroke-miterlimit="10" d="
				M395.04,324.99c6.16-0.08,11.49-7.36,19.8,2.77"/>
			<path fill="none" stroke="#58595B" stroke-width="3" stroke-linecap="round" stroke-linejoin="round" stroke-miterlimit="10" d="
				M409.82,302.82c-22.15-8.31-4.42,5.33-12.32,9.24c-2.91,1.44-15.74-5.61-27.75,0.19"/>
			<path fill="none" stroke="#58595B" stroke-width="3" stroke-linecap="round" stroke-linejoin="round" stroke-miterlimit="10" d="
				M480.93,214.17c0.61-0.92,1.221-1.85,1.84-2.77c1.54-2.28,3.08-0.04,4.61,0.08c0.05,0,0.16,1.2-0.02,1.76
				c-0.57,1.8-2.13,1.7-3.66,1.89c-3.681,0.46-7.311-2.54-11.25,0.69c-1.891,1.55-2.75,2.63-2.601,4.81"/>
			<path fill="none" stroke="#1C75BC" stroke-width="3" stroke-linecap="round" stroke-linejoin="round" stroke-miterlimit="10" d="
				M225.13,343.46c2.16,10.89,4.61,22,22.16,18.47h5.54c6.7,1.38,12.89,6.98,20.38,1.94c2.69-1.81,6.29-2.23,9.13-3.86
				c8.04-4.6,17.77-5.64,24.97-11.94"/>
			<path fill="none" stroke="#58595B" stroke-width="3" stroke-linecap="round" stroke-linejoin="round" stroke-miterlimit="10" d="
				M416.28,256.65c-2.63,2.62-7.98,2.83-7.38,8.31"/>
			<path fill="none" stroke="#21409A" stroke-width="3" stroke-linecap="round" stroke-linejoin="round" stroke-miterlimit="10" d="
				M228.82,275.12c2.77,2.04,10.16,8.16,12.93,7.39"/>
			<path fill="none" stroke="#262262" stroke-width="3" stroke-linecap="round" stroke-linejoin="round" stroke-miterlimit="10" d="
				M213.12,333.76c-7.39,2.77-16.12-4.16-13.46-16.62l6.07-12.63c0.26-2.71-6.63-33.08,3.77-34.93"/>
			<path fill="none" stroke="#BE1E2D" stroke-width="3" stroke-linecap="round" stroke-linejoin="round" stroke-miterlimit="10" d="
				M455.07,260.34c3.52,0.3,3.899-1.92,3.689-4.61"/>
			<path fill="none" stroke="#21409A" stroke-width="3" stroke-linecap="round" stroke-linejoin="round" stroke-miterlimit="10" d="
				M228.82,275.12c-7.58-4.84-9.71-4.02-12.01,4.62"/>
			<path fill="none" stroke="#7F3F98" stroke-width="3" stroke-linecap="round" stroke-linejoin="round" stroke-miterlimit="10" d="
				M306,286.2c-5.84-48.94-48.45-37.65-53.42-67.87"/>
			<path fill="none" stroke="#000000" stroke-width="3" stroke-linecap="round" stroke-linejoin="round" stroke-miterlimit="10" d="
				M338.17,319.45c-16.58,5.54-11.07,25.35-12.4,25c-2.97-0.78-4.239,0.6-3.68,3.62"/>
			<path fill="none" stroke="#27AAE1" stroke-width="3" stroke-linecap="round" stroke-linejoin="round" stroke-miterlimit="10" d="
				M236.21,199.4c-2.55,2.06-32.32-33.4-11.08,8.6l12.46,7.51c1.93,1.57,12.94,20.85,13.39,22.67"/>
			<path fill="none" stroke="#BE1E2D" stroke-width="3" stroke-linecap="round" stroke-linejoin="round" stroke-miterlimit="10" d="
				M481.85,221.56c-2.369,1.15-5.54,0.53-5,5.58c0.42,3.9-3.069,7.11-7.93,3.65"/>
			<path fill="none" stroke="#21409A" stroke-width="3" stroke-linecap="round" stroke-linejoin="round" stroke-miterlimit="10" d="
				M311.01,324.99c-4.91-22.17-19.55-30.63-21.7-31.86"/>
			<path fill="none" stroke="#6D6E71" stroke-width="3" stroke-linecap="round" stroke-linejoin="round" stroke-miterlimit="10" d="
				M395.04,351.77c-7.37-9.24-15.7-6.47-18.47,0"/>
			<path fill="none" stroke="#27AAE1" stroke-width="3" stroke-linecap="round" stroke-linejoin="round" stroke-miterlimit="10" d="
				M313.78,310.21c-0.511,3.78,6.25,4.64,3.689,9.24"/>
			<path fill="none" stroke="#58595B" stroke-width="3" stroke-linecap="round" stroke-linejoin="round" stroke-miterlimit="10" d="
				M465.23,242.8c0.6,5.06-3.37,4.79-6.471,5.54"/>
			<path fill="none" stroke="#58595B" stroke-width="3" stroke-linecap="round" stroke-linejoin="round" stroke-miterlimit="10" d="
				M423.02,314.86c0.73,4.69-3.59,9.05-8.18,12.9c-5.33,4.48-11.04,8.28-9.64,11.11"/>
			<path fill="none" stroke="#58595B" stroke-width="3" stroke-linecap="round" stroke-linejoin="round" stroke-miterlimit="10" d="
				M350.72,323.14c-3.47,3.14-10.04,0.53-12.01,6.46"/>
			<path fill="none" stroke="#58595B" stroke-width="3" stroke-linecap="round" stroke-linejoin="round" stroke-miterlimit="10" d="
				M430.14,288.97c8.74,5.26,10.15,8.99,6.42,17.53c-0.609,1.41-1.22,2.72-3.699,2.04c-2.4-0.65-16.58-8.35-12.86-15.41
				c1.04-1.98-20.18-0.05-22.5-3.05"/>
			<path fill="none" stroke="#1C75BC" stroke-width="3" stroke-linecap="round" stroke-linejoin="round" stroke-miterlimit="10" d="
				M228.82,232.18c-0.78,2.42-24.93-11.55,2.19,23.55"/>
			<path fill="none" stroke="#27AAE1" stroke-width="3" stroke-linecap="round" stroke-linejoin="round" stroke-miterlimit="10" d="
				M233.44,226.18c0.92,0.3,15.7,11.69,16.62,12"/>
			<path fill="none" stroke="#58595B" stroke-width="3" stroke-linecap="round" stroke-linejoin="round" stroke-miterlimit="10" d="
				M471.69,237.26c-2.771,5.54-10.25,2.37-12,1.94"/>
			<path fill="none" stroke="#58595B" stroke-width="3" stroke-linecap="round" stroke-linejoin="round" stroke-miterlimit="10" d="
				M369.73,377.47c-3.74-1.28-22.311-14.08-22.311-5.77"/>
			<path fill="none" stroke="#58595B" stroke-width="3" stroke-linecap="round" stroke-linejoin="round" stroke-miterlimit="10" d="
				M376.57,368.39c-30.471-2.46-23.91-23.46-26.92-24.87"/>
			<path fill="none" stroke="#58595B" stroke-width="3" stroke-linecap="round" stroke-linejoin="round" stroke-miterlimit="10" d="
				M475.38,223.41c-1.53-0.03-11.81,2.12-13.35,4.41"/>
			<path fill="none" stroke="#58595B" stroke-width="3" stroke-linecap="round" stroke-linejoin="round" stroke-miterlimit="10" d="
				M459.69,236.33c-5.36-1.13-10.11,12.85-10.721,14.08"/>
			<path fill="none" stroke="#58595B" stroke-width="3" stroke-linecap="round" stroke-linejoin="round" stroke-miterlimit="10" d="
				M392.27,353.61c-3.47,19.04-17.539,24.53-31.39,25.87l-8.78-0.93c-13.71-3.39-19.76-20.22-18.93-32.32"/>
			<path fill="none" stroke="#58595B" stroke-width="3" stroke-linecap="round" stroke-linejoin="round" stroke-miterlimit="10" d="
				M478.16,217.86c-0.93,0.31-1.851,0.62-2.78,0.93"/>
		</g>
	</g>
</g>
<path fill-rule="evenodd" clip-rule="evenodd" fill="none" stroke="#000000" stroke-width="2" stroke-linecap="round" stroke-linejoin="round" stroke-miterlimit="10" d="
	M240.825,204.936"/>
<path fill-rule="evenodd" clip-rule="evenodd" fill="none" stroke="#000000" stroke-width="2" stroke-linecap="round" stroke-linejoin="round" stroke-miterlimit="10" d="
	M350.718,287.125c0,0-5.317,17.758-13.594,24.934"/>
<ellipse fill-rule="evenodd" clip-rule="evenodd" stroke="#855914" stroke-width="2" stroke-linecap="round" stroke-linejoin="round" stroke-miterlimit="10" cx="350.487" cy="277.398" rx="1.616" ry="1.448"/>
</svg>
